# xmcd CD database file
# Copyright (C) 1993-1998 Ti Kan
# 
# Track frame offsets:
#     150
#     6597
#     23987
#     44632
#     67897
#     88922
#     109665
#     130810
#     151877
#     170305
#     196442
#     219415
# 
# Disc length: 3167 seconds
# 
# Revision: 1
# Processed by: cddbd v1.4b41PL1 Copyright (c) Steve Scherf et al.
# Submitted via: DiscPlay 4.0.4
# 
DISCID=a30c5d0c
DTITLE=J. Quest - The Quest Is On...
DYEAR=1900
DGENRE=
TTITLE0=Given It All (Interlude)
TTITLE1=The Quest is On
TTITLE2=It's Gonna Be Alright
TTITLE3=Brand New Love
TTITLE4=Up and Down (Remix)
TTITLE5=Anything (Album Mix)
TTITLE6=Don't Stop Ya Luv
TTITLE7=From Now On
TTITLE8=Come and Give It
TTITLE9=On My Mind
TTITLE10=Behind The Scenes
TTITLE11=Up and Down (Original Mix)
EXTD=
EXTT0=
EXTT1=
EXTT2=
EXTT3=
EXTT4=
EXTT5=
EXTT6=
EXTT7=
EXTT8=
EXTT9=
EXTT10=
EXTT11=
PLAYORDER=
